<svg width="345" height="72" viewBox="0 0 345 72" fill="none" xmlns="http://www.w3.org/2000/svg">
<path d="M16.5 2C16.5 4 16.5 6 16.5 8C20.1138 7.53629 23.7275 7.12634 27.3413 6.77014C34.7275 6.0421 42.1138 5.53864 49.5 5.25975C54.0163 5.03517 58.6151 7.48401 60.9991 11.4239C62.3065 13.5358 63.0032 16.0162 62.9942 18.5C62.9773 29.5 62.9226 40.5 62.8303 51.5C62.9408 58.6082 56.4762 64.8755 49.5 64.6057C38.5 64.465 27.5 64.2867 16.5 64.0707C9.79075 64.0864 4.04829 57.937 4.39236 51.5C4.65675 40.5 4.95879 29.5 5.29848 18.5C5.39328 15.6183 6.65141 12.8728 8.67901 10.9505C10.7896 8.92326 13.6763 7.85791 16.5 8C16.5 6 16.5 4 16.5 2C12.084 2.10308 7.78948 4.09745 4.89545 7.29722C2.09906 10.3334 0.573541 14.46 0.701525 18.5C1.04121 29.5 1.34325 40.5 1.60764 51.5C1.60202 59.4449 8.82739 66.2633 16.5 65.9293C27.5 65.7133 38.5 65.535 49.5 65.3943C56.9057 65.4742 63.4089 58.7737 63.1697 51.5C63.0774 40.5 63.0227 29.5 63.0058 18.5C63.0069 16.0141 62.3064 13.5358 60.9991 11.4239C58.6098 7.49976 54.1922 4.87899 49.5 4.74025C42.1138 4.46136 34.7275 3.9579 27.3413 3.22986C23.7275 2.87366 20.1138 2.46371 16.5 2ZM16.5 8V2V8Z" fill="#D95323"/>
<g filter="url(#filter0_d_143_26)">
<path d="M45.3612 10.0366C35.2266 8.55808 29.5445 8.75431 19.41 10.0366C13.5467 10.0366 8.79357 14.8884 8.79357 20.8733C6.44035 31.2185 6.36424 37.0179 8.79357 47.3631C8.79357 53.3481 13.5467 58.1998 19.41 58.1998C30.2356 60.5882 35.9234 60.6119 45.3612 58.1998C51.2245 58.1998 55.9776 53.3481 55.9776 47.3631C58.7757 37.0182 58.5706 31.2183 55.9776 20.8733C55.9776 14.8884 51.2245 10.0366 45.3612 10.0366Z" fill="#D95323"/>
<path d="M45.3612 10.0366C35.2266 8.55808 29.5445 8.75431 19.41 10.0366C13.5467 10.0366 8.79357 14.8884 8.79357 20.8733C6.44035 31.2185 6.36424 37.0179 8.79357 47.3631C8.79357 53.3481 13.5467 58.1998 19.41 58.1998C30.2356 60.5882 35.9234 60.6119 45.3612 58.1998C51.2245 58.1998 55.9776 53.3481 55.9776 47.3631C58.7757 37.0182 58.5706 31.2183 55.9776 20.8733C55.9776 14.8884 51.2245 10.0366 45.3612 10.0366Z" stroke="#D95323" stroke-width="6"/>
</g>
<path d="M44 30C47.3137 30 50 27.3137 50 24C50 20.6863 47.3137 18 44 18C40.6863 18 38 20.6863 38 24C38 27.3137 40.6863 30 44 30Z" fill="#E6EAD7"/>
<path d="M20 54C23.3137 54 26 51.3137 26 48C26 44.6863 23.3137 42 20 42C16.6863 42 14 44.6863 14 48C14 51.3137 16.6863 54 20 54Z" fill="#E6EAD7"/>
<path d="M86.543 63H72.5273V56.8906H86.543C86.9622 56.8906 87.3216 56.7409 87.6211 56.4414C87.9206 56.1419 88.0703 55.7826 88.0703 55.3633C88.0703 54.929 87.9206 54.6445 87.6211 54.5098C87.3216 54.375 86.9622 54.3076 86.543 54.3076H80.1641C79.1009 54.3076 78.1051 54.1055 77.1768 53.7012C76.2484 53.2969 75.4398 52.7503 74.751 52.0615C74.0622 51.3577 73.5156 50.5417 73.1113 49.6133C72.722 48.6849 72.5273 47.6891 72.5273 46.626C72.5273 45.5628 72.722 44.5671 73.1113 43.6387C73.5156 42.7103 74.0622 41.9017 74.751 41.2129C75.4398 40.5241 76.2484 39.985 77.1768 39.5957C78.1051 39.1914 79.1009 38.9893 80.1641 38.9893H92.585V45.0986H80.1641C79.7448 45.0986 79.3854 45.2484 79.0859 45.5479C78.7865 45.8473 78.6367 46.2067 78.6367 46.626C78.6367 47.0602 78.7865 47.4346 79.0859 47.749C79.3854 48.0485 79.7448 48.1982 80.1641 48.1982H86.543C87.5911 48.1982 88.5794 48.3779 89.5078 48.7373C90.4362 49.0817 91.2448 49.5684 91.9336 50.1973C92.6224 50.8262 93.1689 51.5824 93.5732 52.4658C93.9775 53.3493 94.1797 54.3151 94.1797 55.3633C94.1797 56.4264 93.9775 57.4222 93.5732 58.3506C93.1689 59.264 92.6224 60.0726 91.9336 60.7764C91.2448 61.4652 90.4362 62.0117 89.5078 62.416C88.5794 62.8053 87.5911 63 86.543 63ZM107.027 57.1152C107.267 57.1901 107.507 57.2425 107.746 57.2725C107.986 57.2874 108.225 57.2949 108.465 57.2949C109.064 57.2949 109.64 57.2126 110.194 57.0479C110.748 56.8831 111.265 56.651 111.744 56.3516C112.238 56.0371 112.673 55.6628 113.047 55.2285C113.436 54.7793 113.751 54.2852 113.99 53.7461L118.482 58.2607C117.913 59.0693 117.255 59.7956 116.506 60.4395C115.772 61.0833 114.971 61.6299 114.103 62.0791C113.249 62.5283 112.343 62.8652 111.385 63.0898C110.441 63.3294 109.468 63.4492 108.465 63.4492C106.773 63.4492 105.178 63.1348 103.681 62.5059C102.198 61.877 100.896 61.001 99.7725 59.8779C98.6644 58.7549 97.7884 57.4222 97.1445 55.8799C96.5007 54.3226 96.1787 52.6156 96.1787 50.7588C96.1787 48.8571 96.5007 47.1201 97.1445 45.5479C97.7884 43.9756 98.6644 42.6354 99.7725 41.5273C100.896 40.4193 102.198 39.5583 103.681 38.9443C105.178 38.3304 106.773 38.0234 108.465 38.0234C109.468 38.0234 110.449 38.1432 111.407 38.3828C112.366 38.6224 113.271 38.9668 114.125 39.416C114.993 39.8652 115.802 40.4193 116.551 41.0781C117.299 41.722 117.958 42.4482 118.527 43.2568L107.027 57.1152ZM110.172 44.4697C109.887 44.3649 109.603 44.2975 109.318 44.2676C109.049 44.2376 108.764 44.2227 108.465 44.2227C107.626 44.2227 106.833 44.3799 106.084 44.6943C105.35 44.9938 104.706 45.4281 104.152 45.9971C103.613 46.5661 103.187 47.2549 102.872 48.0635C102.558 48.8571 102.4 49.7555 102.4 50.7588C102.4 50.9834 102.408 51.238 102.423 51.5225C102.453 51.807 102.49 52.099 102.535 52.3984C102.595 52.6829 102.662 52.96 102.737 53.2295C102.812 53.499 102.91 53.7386 103.029 53.9482L110.172 44.4697ZM142.471 43.7285L137.979 48.2432C137.754 47.6143 137.447 47.0527 137.058 46.5586C136.668 46.0495 136.227 45.6227 135.732 45.2783C135.253 44.9339 134.729 44.6719 134.16 44.4922C133.591 44.3125 133.007 44.2227 132.408 44.2227C131.57 44.2227 130.776 44.3949 130.027 44.7393C129.294 45.0837 128.65 45.5703 128.096 46.1992C127.557 46.8132 127.13 47.5469 126.815 48.4004C126.501 49.2539 126.344 50.1973 126.344 51.2305C126.344 52.069 126.501 52.8551 126.815 53.5889C127.13 54.3226 127.557 54.9665 128.096 55.5205C128.65 56.0745 129.294 56.5088 130.027 56.8232C130.776 57.1377 131.57 57.2949 132.408 57.2949C133.007 57.2949 133.584 57.2126 134.138 57.0479C134.692 56.8831 135.208 56.651 135.688 56.3516C136.182 56.0371 136.616 55.6628 136.99 55.2285C137.38 54.7793 137.694 54.2852 137.934 53.7461L142.426 58.2607C141.857 59.0693 141.198 59.7956 140.449 60.4395C139.715 61.0833 138.914 61.6299 138.046 62.0791C137.192 62.5283 136.286 62.8652 135.328 63.0898C134.385 63.3294 133.411 63.4492 132.408 63.4492C130.716 63.4492 129.121 63.1348 127.624 62.5059C126.142 61.862 124.839 60.986 123.716 59.8779C122.608 58.7699 121.732 57.4746 121.088 55.9922C120.444 54.5098 120.122 52.9225 120.122 51.2305C120.122 49.3887 120.444 47.6667 121.088 46.0645C121.732 44.4622 122.608 43.0697 123.716 41.8867C124.839 40.6888 126.142 39.7454 127.624 39.0566C129.121 38.3678 130.716 38.0234 132.408 38.0234C133.411 38.0234 134.392 38.1507 135.351 38.4053C136.324 38.6598 137.245 39.0342 138.113 39.5283C138.997 40.0075 139.805 40.599 140.539 41.3027C141.288 42.0065 141.932 42.8151 142.471 43.7285ZM168.368 50.7588C168.368 52.5557 168.046 54.2327 167.402 55.79C166.758 57.3324 165.882 58.6725 164.774 59.8105C163.666 60.9336 162.364 61.8245 160.866 62.4834C159.384 63.1273 157.789 63.4492 156.082 63.4492C154.39 63.4492 152.795 63.1273 151.298 62.4834C149.815 61.8245 148.513 60.9336 147.39 59.8105C146.282 58.6725 145.406 57.3324 144.762 55.79C144.118 54.2327 143.796 52.5557 143.796 50.7588C143.796 48.932 144.118 47.2399 144.762 45.6826C145.406 44.1253 146.282 42.7852 147.39 41.6621C148.513 40.5241 149.815 39.6331 151.298 38.9893C152.795 38.3454 154.39 38.0234 156.082 38.0234C157.789 38.0234 159.384 38.3304 160.866 38.9443C162.364 39.5433 163.666 40.4043 164.774 41.5273C165.882 42.6354 166.758 43.9756 167.402 45.5479C168.046 47.1051 168.368 48.8421 168.368 50.7588ZM162.191 50.7588C162.191 49.7705 162.027 48.8796 161.697 48.0859C161.383 47.2773 160.949 46.5885 160.395 46.0195C159.84 45.4355 159.189 44.9938 158.44 44.6943C157.707 44.3799 156.921 44.2227 156.082 44.2227C155.243 44.2227 154.45 44.3799 153.701 44.6943C152.967 44.9938 152.324 45.4355 151.77 46.0195C151.23 46.5885 150.804 47.2773 150.489 48.0859C150.175 48.8796 150.018 49.7705 150.018 50.7588C150.018 51.6872 150.175 52.5482 150.489 53.3418C150.804 54.1354 151.23 54.8242 151.77 55.4082C152.324 55.9922 152.967 56.4564 153.701 56.8008C154.45 57.1302 155.243 57.2949 156.082 57.2949C156.921 57.2949 157.707 57.1377 158.44 56.8232C159.189 56.5088 159.84 56.0671 160.395 55.498C160.949 54.929 161.383 54.2402 161.697 53.4316C162.027 52.623 162.191 51.7321 162.191 50.7588ZM177.892 63H171.76V38.9443H173.242L175.264 41.2803C176.252 40.3818 177.368 39.693 178.61 39.2139C179.868 38.7197 181.178 38.4727 182.541 38.4727C184.008 38.4727 185.394 38.7572 186.696 39.3262C187.999 39.8802 189.137 40.6514 190.11 41.6396C191.084 42.613 191.847 43.7585 192.401 45.0762C192.97 46.3789 193.255 47.7715 193.255 49.2539V63H187.123V49.2539C187.123 48.625 187.003 48.0335 186.764 47.4795C186.524 46.9105 186.195 46.4163 185.775 45.9971C185.356 45.5778 184.869 45.2484 184.315 45.0088C183.761 44.7692 183.17 44.6494 182.541 44.6494C181.897 44.6494 181.291 44.7692 180.722 45.0088C180.153 45.2484 179.659 45.5778 179.239 45.9971C178.82 46.4163 178.491 46.9105 178.251 47.4795C178.011 48.0335 177.892 48.625 177.892 49.2539V63ZM220.882 63H219.399L217.019 59.6982C216.435 60.2223 215.813 60.7165 215.154 61.1807C214.51 61.6299 213.829 62.0267 213.11 62.3711C212.392 62.7005 211.65 62.9626 210.887 63.1572C210.138 63.3519 209.374 63.4492 208.596 63.4492C206.904 63.4492 205.309 63.1348 203.812 62.5059C202.329 61.862 201.026 60.9785 199.903 59.8555C198.795 58.7174 197.919 57.3773 197.275 55.835C196.632 54.2777 196.31 52.5856 196.31 50.7588C196.31 48.9469 196.632 47.2624 197.275 45.7051C197.919 44.1478 198.795 42.8001 199.903 41.6621C201.026 40.5241 202.329 39.6331 203.812 38.9893C205.309 38.3454 206.904 38.0234 208.596 38.0234C209.135 38.0234 209.689 38.0684 210.258 38.1582C210.842 38.248 211.403 38.3978 211.942 38.6074C212.496 38.8021 213.013 39.0641 213.492 39.3936C213.971 39.723 214.376 40.1273 214.705 40.6064V29.376H220.882V63ZM214.705 50.7588C214.705 49.9202 214.54 49.1117 214.211 48.333C213.896 47.5394 213.462 46.8431 212.908 46.2441C212.354 45.6302 211.703 45.1436 210.954 44.7842C210.22 44.4098 209.434 44.2227 208.596 44.2227C207.757 44.2227 206.964 44.3724 206.215 44.6719C205.481 44.9714 204.837 45.4056 204.283 45.9746C203.744 46.5286 203.317 47.21 203.003 48.0186C202.688 48.8271 202.531 49.7406 202.531 50.7588C202.531 51.6423 202.688 52.4808 203.003 53.2744C203.317 54.068 203.744 54.7643 204.283 55.3633C204.837 55.9622 205.481 56.4339 206.215 56.7783C206.964 57.1227 207.757 57.2949 208.596 57.2949C209.434 57.2949 210.22 57.1152 210.954 56.7559C211.703 56.3815 212.354 55.8949 212.908 55.2959C213.462 54.682 213.896 53.9857 214.211 53.207C214.54 52.4134 214.705 51.5973 214.705 50.7588ZM250.53 63C249.048 63 247.655 62.723 246.353 62.1689C245.05 61.5999 243.904 60.8288 242.916 59.8555C241.943 58.8672 241.172 57.7217 240.603 56.4189C240.049 55.1162 239.771 53.7236 239.771 52.2412V45.0986H236.784V38.9893H239.771V29.376H245.881V38.9893H255.18V45.0986H245.881V52.2412C245.881 52.8851 246.001 53.4915 246.24 54.0605C246.48 54.6146 246.809 55.1012 247.229 55.5205C247.648 55.9398 248.142 56.2767 248.711 56.5312C249.28 56.7708 249.886 56.8906 250.53 56.8906H255.18V63H250.53ZM276.315 60.1924C275.821 60.6416 275.29 61.0684 274.721 61.4727C274.167 61.862 273.583 62.2064 272.969 62.5059C272.355 62.7904 271.718 63.015 271.06 63.1797C270.416 63.3594 269.757 63.4492 269.083 63.4492C267.601 63.4492 266.208 63.1872 264.905 62.6631C263.603 62.139 262.457 61.3978 261.469 60.4395C260.495 59.4661 259.724 58.2907 259.155 56.9131C258.601 55.5205 258.324 53.9632 258.324 52.2412V38.9443H264.434V52.2412C264.434 53.0498 264.553 53.776 264.793 54.4199C265.048 55.0488 265.384 55.5804 265.804 56.0146C266.223 56.4489 266.71 56.7783 267.264 57.0029C267.833 57.2275 268.439 57.3398 269.083 57.3398C269.712 57.3398 270.303 57.1976 270.857 56.9131C271.426 56.6136 271.921 56.2243 272.34 55.7451C272.759 55.266 273.089 54.7269 273.328 54.1279C273.568 53.514 273.688 52.8851 273.688 52.2412V38.9443H279.819V63H278.337L276.315 60.1924ZM290.646 63H284.514V38.9443H285.996L288.018 41.7969C289.006 40.8984 290.129 40.2096 291.387 39.7305C292.645 39.2363 293.947 38.9893 295.295 38.9893H300.708V45.0986H295.295C294.651 45.0986 294.045 45.2184 293.476 45.458C292.907 45.6976 292.412 46.027 291.993 46.4463C291.574 46.8656 291.244 47.3597 291.005 47.9287C290.765 48.4977 290.646 49.1042 290.646 49.748V63ZM309.692 63H303.561V38.9443H305.043L307.064 41.2803C308.053 40.3818 309.168 39.693 310.411 39.2139C311.669 38.7197 312.979 38.4727 314.342 38.4727C315.809 38.4727 317.194 38.7572 318.497 39.3262C319.8 39.8802 320.938 40.6514 321.911 41.6396C322.884 42.613 323.648 43.7585 324.202 45.0762C324.771 46.3789 325.056 47.7715 325.056 49.2539V63H318.924V49.2539C318.924 48.625 318.804 48.0335 318.564 47.4795C318.325 46.9105 317.995 46.4163 317.576 45.9971C317.157 45.5778 316.67 45.2484 316.116 45.0088C315.562 44.7692 314.971 44.6494 314.342 44.6494C313.698 44.6494 313.091 44.7692 312.522 45.0088C311.953 45.2484 311.459 45.5778 311.04 45.9971C310.621 46.4163 310.291 46.9105 310.052 47.4795C309.812 48.0335 309.692 48.625 309.692 49.2539V63Z" fill="#29432B"/>
<path d="M77.2109 20.9297C77.3359 20.9688 77.4609 20.9961 77.5859 21.0117C77.7109 21.0195 77.8359 21.0234 77.9609 21.0234C78.2734 21.0234 78.5742 20.9805 78.8633 20.8945C79.1523 20.8086 79.4219 20.6875 79.6719 20.5312C79.9297 20.3672 80.1562 20.1719 80.3516 19.9453C80.5547 19.7109 80.7188 19.4531 80.8438 19.1719L83.1875 21.5273C82.8906 21.9492 82.5469 22.3281 82.1562 22.6641C81.7734 23 81.3555 23.2852 80.9023 23.5195C80.457 23.7539 79.9844 23.9297 79.4844 24.0469C78.9922 24.1719 78.4844 24.2344 77.9609 24.2344C77.0781 24.2344 76.2461 24.0703 75.4648 23.7422C74.6914 23.4141 74.0117 22.957 73.4258 22.3711C72.8477 21.7852 72.3906 21.0898 72.0547 20.2852C71.7188 19.4727 71.5508 18.582 71.5508 17.6133C71.5508 16.6211 71.7188 15.7148 72.0547 14.8945C72.3906 14.0742 72.8477 13.375 73.4258 12.7969C74.0117 12.2188 74.6914 11.7695 75.4648 11.4492C76.2461 11.1289 77.0781 10.9688 77.9609 10.9688C78.4844 10.9688 78.9961 11.0312 79.4961 11.1562C79.9961 11.2812 80.4688 11.4609 80.9141 11.6953C81.3672 11.9297 81.7891 12.2188 82.1797 12.5625C82.5703 12.8984 82.9141 13.2773 83.2109 13.6992L77.2109 20.9297ZM78.8516 14.332C78.7031 14.2773 78.5547 14.2422 78.4062 14.2266C78.2656 14.2109 78.1172 14.2031 77.9609 14.2031C77.5234 14.2031 77.1094 14.2852 76.7188 14.4492C76.3359 14.6055 76 14.832 75.7109 15.1289C75.4297 15.4258 75.207 15.7852 75.043 16.207C74.8789 16.6211 74.7969 17.0898 74.7969 17.6133C74.7969 17.7305 74.8008 17.8633 74.8086 18.0117C74.8242 18.1602 74.8438 18.3125 74.8672 18.4688C74.8984 18.6172 74.9336 18.7617 74.9727 18.9023C75.0117 19.043 75.0625 19.168 75.125 19.2773L78.8516 14.332ZM88.2266 24L83.4453 11.4492H87.0898L89.832 19.2773L92.5625 11.4492H96.2188L91.4375 24H88.2266ZM102.055 20.9297C102.18 20.9688 102.305 20.9961 102.43 21.0117C102.555 21.0195 102.68 21.0234 102.805 21.0234C103.117 21.0234 103.418 20.9805 103.707 20.8945C103.996 20.8086 104.266 20.6875 104.516 20.5312C104.773 20.3672 105 20.1719 105.195 19.9453C105.398 19.7109 105.562 19.4531 105.688 19.1719L108.031 21.5273C107.734 21.9492 107.391 22.3281 107 22.6641C106.617 23 106.199 23.2852 105.746 23.5195C105.301 23.7539 104.828 23.9297 104.328 24.0469C103.836 24.1719 103.328 24.2344 102.805 24.2344C101.922 24.2344 101.09 24.0703 100.309 23.7422C99.5352 23.4141 98.8555 22.957 98.2695 22.3711C97.6914 21.7852 97.2344 21.0898 96.8984 20.2852C96.5625 19.4727 96.3945 18.582 96.3945 17.6133C96.3945 16.6211 96.5625 15.7148 96.8984 14.8945C97.2344 14.0742 97.6914 13.375 98.2695 12.7969C98.8555 12.2188 99.5352 11.7695 100.309 11.4492C101.09 11.1289 101.922 10.9688 102.805 10.9688C103.328 10.9688 103.84 11.0312 104.34 11.1562C104.84 11.2812 105.312 11.4609 105.758 11.6953C106.211 11.9297 106.633 12.2188 107.023 12.5625C107.414 12.8984 107.758 13.2773 108.055 13.6992L102.055 20.9297ZM103.695 14.332C103.547 14.2773 103.398 14.2422 103.25 14.2266C103.109 14.2109 102.961 14.2031 102.805 14.2031C102.367 14.2031 101.953 14.2852 101.562 14.4492C101.18 14.6055 100.844 14.832 100.555 15.1289C100.273 15.4258 100.051 15.7852 99.8867 16.207C99.7227 16.6211 99.6406 17.0898 99.6406 17.6133C99.6406 17.7305 99.6445 17.8633 99.6523 18.0117C99.668 18.1602 99.6875 18.3125 99.7109 18.4688C99.7422 18.6172 99.7773 18.7617 99.8164 18.9023C99.8555 19.043 99.9062 19.168 99.9688 19.2773L103.695 14.332ZM112.871 24H109.672V11.4492H110.445L111.5 12.9375C112.016 12.4688 112.602 12.1094 113.258 11.8594C113.914 11.6016 114.594 11.4727 115.297 11.4727H118.121V14.6602H115.297C114.961 14.6602 114.645 14.7227 114.348 14.8477C114.051 14.9727 113.793 15.1445 113.574 15.3633C113.355 15.582 113.184 15.8398 113.059 16.1367C112.934 16.4336 112.871 16.75 112.871 17.0859V24ZM122.539 28.7812V25.5586L124.32 25.582C124.633 25.582 124.934 25.5312 125.223 25.4297C125.512 25.3281 125.777 25.1875 126.02 25.0078C126.27 24.8281 126.488 24.6133 126.676 24.3633C126.863 24.1211 127.016 23.8555 127.133 23.5664C126.781 23.7148 126.422 23.8633 126.055 24.0117C125.695 24.1602 125.332 24.2344 124.965 24.2344C124.191 24.2344 123.465 24.0977 122.785 23.8242C122.105 23.5508 121.508 23.1641 120.992 22.6641C120.484 22.1562 120.082 21.543 119.785 20.8242C119.496 20.0977 119.352 19.2852 119.352 18.3867V11.4492H122.539V18.3867C122.539 18.832 122.602 19.2227 122.727 19.5586C122.859 19.8867 123.035 20.1641 123.254 20.3906C123.473 20.6094 123.727 20.7734 124.016 20.8828C124.312 20.9922 124.629 21.0469 124.965 21.0469C125.293 21.0469 125.602 20.9727 125.891 20.8242C126.188 20.668 126.445 20.4648 126.664 20.2148C126.883 19.9648 127.055 19.6836 127.18 19.3711C127.305 19.0508 127.367 18.7227 127.367 18.3867V11.4492H130.59V22.418C130.582 23.3008 130.41 24.1289 130.074 24.9023C129.738 25.6758 129.277 26.3516 128.691 26.9297C128.113 27.5078 127.438 27.9648 126.664 28.3008C125.891 28.6367 125.062 28.8047 124.18 28.8047L122.539 28.7812ZM148.695 17.6133C148.695 17.1758 148.609 16.7539 148.438 16.3477C148.273 15.9336 148.047 15.5703 147.758 15.2578C147.469 14.9375 147.129 14.6836 146.738 14.4961C146.355 14.3008 145.945 14.2031 145.508 14.2031C145.07 14.2031 144.656 14.2773 144.266 14.4258C143.883 14.5742 143.547 14.793 143.258 15.082C142.977 15.3711 142.754 15.7305 142.59 16.1602C142.426 16.582 142.344 17.0664 142.344 17.6133C142.344 18.1367 142.426 18.6094 142.59 19.0312C142.754 19.4453 142.977 19.8008 143.258 20.0977C143.547 20.3945 143.883 20.625 144.266 20.7891C144.656 20.9453 145.07 21.0234 145.508 21.0234C145.945 21.0234 146.355 20.9297 146.738 20.7422C147.129 20.5469 147.469 20.293 147.758 19.9805C148.047 19.6602 148.273 19.2969 148.438 18.8906C148.609 18.4766 148.695 18.0508 148.695 17.6133ZM151.918 22.418C151.918 23.3008 151.75 24.1289 151.414 24.9023C151.078 25.6758 150.617 26.3516 150.031 26.9297C149.453 27.5078 148.773 27.9648 147.992 28.3008C147.219 28.6367 146.391 28.8047 145.508 28.8047L143.902 28.7812V25.582L145.484 25.6055C145.984 25.6055 146.41 25.5391 146.762 25.4062C147.113 25.2812 147.41 25.1055 147.652 24.8789C147.895 24.6602 148.086 24.4062 148.227 24.1172C148.375 23.8281 148.492 23.5234 148.578 23.2031C148.453 23.4062 148.273 23.5742 148.039 23.707C147.805 23.832 147.543 23.9336 147.254 24.0117C146.973 24.0977 146.676 24.1562 146.363 24.1875C146.059 24.2188 145.773 24.2344 145.508 24.2344C144.625 24.2344 143.793 24.082 143.012 23.7773C142.238 23.4727 141.559 23.0391 140.973 22.4766C140.395 21.9062 139.938 21.2109 139.602 20.3906C139.266 19.5703 139.098 18.6445 139.098 17.6133C139.098 16.668 139.266 15.7891 139.602 14.9766C139.938 14.1641 140.395 13.4609 140.973 12.8672C141.559 12.2734 142.238 11.8086 143.012 11.4727C143.793 11.1367 144.625 10.9688 145.508 10.9688C145.914 10.9688 146.316 11.0195 146.715 11.1211C147.113 11.2227 147.5 11.3633 147.875 11.543C148.25 11.7227 148.605 11.9336 148.941 12.1758C149.285 12.418 149.605 12.6797 149.902 12.9609L151.145 11.4727H151.918V22.418ZM166.52 24H165.746L164.504 22.2773C164.199 22.5508 163.875 22.8086 163.531 23.0508C163.195 23.2852 162.84 23.4922 162.465 23.6719C162.09 23.8438 161.703 23.9805 161.305 24.082C160.914 24.1836 160.516 24.2344 160.109 24.2344C159.227 24.2344 158.395 24.0859 157.613 23.7891C156.84 23.4922 156.16 23.0625 155.574 22.5C154.996 21.9297 154.539 21.2344 154.203 20.4141C153.867 19.5938 153.699 18.6602 153.699 17.6133C153.699 16.6367 153.867 15.7422 154.203 14.9297C154.539 14.1094 154.996 13.4062 155.574 12.8203C156.16 12.2344 156.84 11.7812 157.613 11.4609C158.395 11.1328 159.227 10.9688 160.109 10.9688C160.516 10.9688 160.918 11.0195 161.316 11.1211C161.715 11.2227 162.102 11.3633 162.477 11.543C162.852 11.7227 163.207 11.9336 163.543 12.1758C163.887 12.418 164.207 12.6797 164.504 12.9609L165.746 11.4727H166.52V24ZM163.297 17.6133C163.297 17.1758 163.211 16.7539 163.039 16.3477C162.875 15.9336 162.648 15.5703 162.359 15.2578C162.07 14.9375 161.73 14.6836 161.34 14.4961C160.957 14.3008 160.547 14.2031 160.109 14.2031C159.672 14.2031 159.258 14.2773 158.867 14.4258C158.484 14.5742 158.148 14.793 157.859 15.082C157.578 15.3711 157.355 15.7305 157.191 16.1602C157.027 16.582 156.945 17.0664 156.945 17.6133C156.945 18.1602 157.027 18.6484 157.191 19.0781C157.355 19.5 157.578 19.8555 157.859 20.1445C158.148 20.4336 158.484 20.6523 158.867 20.8008C159.258 20.9492 159.672 21.0234 160.109 21.0234C160.547 21.0234 160.957 20.9297 161.34 20.7422C161.73 20.5469 162.07 20.293 162.359 19.9805C162.648 19.6602 162.875 19.2969 163.039 18.8906C163.211 18.4766 163.297 18.0508 163.297 17.6133ZM184.93 24H181.742V16.0312C181.742 15.8125 181.699 15.6055 181.613 15.4102C181.535 15.2148 181.422 15.043 181.273 14.8945C181.125 14.7461 180.953 14.6328 180.758 14.5547C180.562 14.4688 180.355 14.4258 180.137 14.4258C179.918 14.4258 179.711 14.4688 179.516 14.5547C179.328 14.6328 179.16 14.7461 179.012 14.8945C178.871 15.043 178.758 15.2148 178.672 15.4102C178.594 15.6055 178.555 15.8125 178.555 16.0312V24H175.355V16.0312C175.355 15.8125 175.312 15.6055 175.227 15.4102C175.148 15.2148 175.035 15.043 174.887 14.8945C174.738 14.7461 174.566 14.6328 174.371 14.5547C174.176 14.4688 173.969 14.4258 173.75 14.4258C173.531 14.4258 173.324 14.4688 173.129 14.5547C172.941 14.6328 172.773 14.7461 172.625 14.8945C172.484 15.043 172.371 15.2148 172.285 15.4102C172.207 15.6055 172.168 15.8125 172.168 16.0312V24H168.969V11.4492H169.742L170.609 12.4102C171.055 12.0352 171.543 11.7461 172.074 11.543C172.613 11.332 173.172 11.2266 173.75 11.2266C174.336 11.2266 174.906 11.3359 175.461 11.5547C176.023 11.7734 176.516 12.1523 176.938 12.6914C177.133 12.4258 177.355 12.1992 177.605 12.0117C177.855 11.8242 178.117 11.6719 178.391 11.5547C178.672 11.4375 178.961 11.3555 179.258 11.3086C179.555 11.2539 179.848 11.2266 180.137 11.2266C180.801 11.2266 181.422 11.3516 182 11.6016C182.586 11.8516 183.094 12.1953 183.523 12.6328C183.961 13.0625 184.305 13.5703 184.555 14.1562C184.805 14.7422 184.93 15.3672 184.93 16.0312V24ZM192.266 20.9297C192.391 20.9688 192.516 20.9961 192.641 21.0117C192.766 21.0195 192.891 21.0234 193.016 21.0234C193.328 21.0234 193.629 20.9805 193.918 20.8945C194.207 20.8086 194.477 20.6875 194.727 20.5312C194.984 20.3672 195.211 20.1719 195.406 19.9453C195.609 19.7109 195.773 19.4531 195.898 19.1719L198.242 21.5273C197.945 21.9492 197.602 22.3281 197.211 22.6641C196.828 23 196.41 23.2852 195.957 23.5195C195.512 23.7539 195.039 23.9297 194.539 24.0469C194.047 24.1719 193.539 24.2344 193.016 24.2344C192.133 24.2344 191.301 24.0703 190.52 23.7422C189.746 23.4141 189.066 22.957 188.48 22.3711C187.902 21.7852 187.445 21.0898 187.109 20.2852C186.773 19.4727 186.605 18.582 186.605 17.6133C186.605 16.6211 186.773 15.7148 187.109 14.8945C187.445 14.0742 187.902 13.375 188.48 12.7969C189.066 12.2188 189.746 11.7695 190.52 11.4492C191.301 11.1289 192.133 10.9688 193.016 10.9688C193.539 10.9688 194.051 11.0312 194.551 11.1562C195.051 11.2812 195.523 11.4609 195.969 11.6953C196.422 11.9297 196.844 12.2188 197.234 12.5625C197.625 12.8984 197.969 13.2773 198.266 13.6992L192.266 20.9297ZM193.906 14.332C193.758 14.2773 193.609 14.2422 193.461 14.2266C193.32 14.2109 193.172 14.2031 193.016 14.2031C192.578 14.2031 192.164 14.2852 191.773 14.4492C191.391 14.6055 191.055 14.832 190.766 15.1289C190.484 15.4258 190.262 15.7852 190.098 16.207C189.934 16.6211 189.852 17.0898 189.852 17.6133C189.852 17.7305 189.855 17.8633 189.863 18.0117C189.879 18.1602 189.898 18.3125 189.922 18.4688C189.953 18.6172 189.988 18.7617 190.027 18.9023C190.066 19.043 190.117 19.168 190.18 19.2773L193.906 14.332ZM218.738 24H217.965L216.723 22.2773C216.418 22.5508 216.094 22.8086 215.75 23.0508C215.414 23.2852 215.059 23.4922 214.684 23.6719C214.309 23.8438 213.922 23.9805 213.523 24.082C213.133 24.1836 212.734 24.2344 212.328 24.2344C211.445 24.2344 210.613 24.0703 209.832 23.7422C209.059 23.4062 208.379 22.9453 207.793 22.3594C207.215 21.7656 206.758 21.0664 206.422 20.2617C206.086 19.4492 205.918 18.5664 205.918 17.6133C205.918 16.668 206.086 15.7891 206.422 14.9766C206.758 14.1641 207.215 13.4609 207.793 12.8672C208.379 12.2734 209.059 11.8086 209.832 11.4727C210.613 11.1367 211.445 10.9688 212.328 10.9688C212.609 10.9688 212.898 10.9922 213.195 11.0391C213.5 11.0859 213.793 11.1641 214.074 11.2734C214.363 11.375 214.633 11.5117 214.883 11.6836C215.133 11.8555 215.344 12.0664 215.516 12.3164V6.45703H218.738V24ZM215.516 17.6133C215.516 17.1758 215.43 16.7539 215.258 16.3477C215.094 15.9336 214.867 15.5703 214.578 15.2578C214.289 14.9375 213.949 14.6836 213.559 14.4961C213.176 14.3008 212.766 14.2031 212.328 14.2031C211.891 14.2031 211.477 14.2812 211.086 14.4375C210.703 14.5938 210.367 14.8203 210.078 15.1172C209.797 15.4062 209.574 15.7617 209.41 16.1836C209.246 16.6055 209.164 17.082 209.164 17.6133C209.164 18.0742 209.246 18.5117 209.41 18.9258C209.574 19.3398 209.797 19.7031 210.078 20.0156C210.367 20.3281 210.703 20.5742 211.086 20.7539C211.477 20.9336 211.891 21.0234 212.328 21.0234C212.766 21.0234 213.176 20.9297 213.559 20.7422C213.949 20.5469 214.289 20.293 214.578 19.9805C214.867 19.6602 215.094 19.2969 215.258 18.8906C215.43 18.4766 215.516 18.0508 215.516 17.6133ZM226.18 20.9297C226.305 20.9688 226.43 20.9961 226.555 21.0117C226.68 21.0195 226.805 21.0234 226.93 21.0234C227.242 21.0234 227.543 20.9805 227.832 20.8945C228.121 20.8086 228.391 20.6875 228.641 20.5312C228.898 20.3672 229.125 20.1719 229.32 19.9453C229.523 19.7109 229.688 19.4531 229.812 19.1719L232.156 21.5273C231.859 21.9492 231.516 22.3281 231.125 22.6641C230.742 23 230.324 23.2852 229.871 23.5195C229.426 23.7539 228.953 23.9297 228.453 24.0469C227.961 24.1719 227.453 24.2344 226.93 24.2344C226.047 24.2344 225.215 24.0703 224.434 23.7422C223.66 23.4141 222.98 22.957 222.395 22.3711C221.816 21.7852 221.359 21.0898 221.023 20.2852C220.688 19.4727 220.52 18.582 220.52 17.6133C220.52 16.6211 220.688 15.7148 221.023 14.8945C221.359 14.0742 221.816 13.375 222.395 12.7969C222.98 12.2188 223.66 11.7695 224.434 11.4492C225.215 11.1289 226.047 10.9688 226.93 10.9688C227.453 10.9688 227.965 11.0312 228.465 11.1562C228.965 11.2812 229.438 11.4609 229.883 11.6953C230.336 11.9297 230.758 12.2188 231.148 12.5625C231.539 12.8984 231.883 13.2773 232.18 13.6992L226.18 20.9297ZM227.82 14.332C227.672 14.2773 227.523 14.2422 227.375 14.2266C227.234 14.2109 227.086 14.2031 226.93 14.2031C226.492 14.2031 226.078 14.2852 225.688 14.4492C225.305 14.6055 224.969 14.832 224.68 15.1289C224.398 15.4258 224.176 15.7852 224.012 16.207C223.848 16.6211 223.766 17.0898 223.766 17.6133C223.766 17.7305 223.77 17.8633 223.777 18.0117C223.793 18.1602 223.812 18.3125 223.836 18.4688C223.867 18.6172 223.902 18.7617 223.941 18.9023C223.98 19.043 224.031 19.168 224.094 19.2773L227.82 14.332ZM240.688 24H233.375V20.8125H240.688C240.906 20.8125 241.094 20.7344 241.25 20.5781C241.406 20.4219 241.484 20.2344 241.484 20.0156C241.484 19.7891 241.406 19.6406 241.25 19.5703C241.094 19.5 240.906 19.4648 240.688 19.4648H237.359C236.805 19.4648 236.285 19.3594 235.801 19.1484C235.316 18.9375 234.895 18.6523 234.535 18.293C234.176 17.9258 233.891 17.5 233.68 17.0156C233.477 16.5312 233.375 16.0117 233.375 15.457C233.375 14.9023 233.477 14.3828 233.68 13.8984C233.891 13.4141 234.176 12.9922 234.535 12.6328C234.895 12.2734 235.316 11.9922 235.801 11.7891C236.285 11.5781 236.805 11.4727 237.359 11.4727H243.84V14.6602H237.359C237.141 14.6602 236.953 14.7383 236.797 14.8945C236.641 15.0508 236.562 15.2383 236.562 15.457C236.562 15.6836 236.641 15.8789 236.797 16.043C236.953 16.1992 237.141 16.2773 237.359 16.2773H240.688C241.234 16.2773 241.75 16.3711 242.234 16.5586C242.719 16.7383 243.141 16.9922 243.5 17.3203C243.859 17.6484 244.145 18.043 244.355 18.5039C244.566 18.9648 244.672 19.4688 244.672 20.0156C244.672 20.5703 244.566 21.0898 244.355 21.5742C244.145 22.0508 243.859 22.4727 243.5 22.8398C243.141 23.1992 242.719 23.4844 242.234 23.6953C241.75 23.8984 241.234 24 240.688 24ZM251.375 20.9297C251.5 20.9688 251.625 20.9961 251.75 21.0117C251.875 21.0195 252 21.0234 252.125 21.0234C252.438 21.0234 252.738 20.9805 253.027 20.8945C253.316 20.8086 253.586 20.6875 253.836 20.5312C254.094 20.3672 254.32 20.1719 254.516 19.9453C254.719 19.7109 254.883 19.4531 255.008 19.1719L257.352 21.5273C257.055 21.9492 256.711 22.3281 256.32 22.6641C255.938 23 255.52 23.2852 255.066 23.5195C254.621 23.7539 254.148 23.9297 253.648 24.0469C253.156 24.1719 252.648 24.2344 252.125 24.2344C251.242 24.2344 250.41 24.0703 249.629 23.7422C248.855 23.4141 248.176 22.957 247.59 22.3711C247.012 21.7852 246.555 21.0898 246.219 20.2852C245.883 19.4727 245.715 18.582 245.715 17.6133C245.715 16.6211 245.883 15.7148 246.219 14.8945C246.555 14.0742 247.012 13.375 247.59 12.7969C248.176 12.2188 248.855 11.7695 249.629 11.4492C250.41 11.1289 251.242 10.9688 252.125 10.9688C252.648 10.9688 253.16 11.0312 253.66 11.1562C254.16 11.2812 254.633 11.4609 255.078 11.6953C255.531 11.9297 255.953 12.2188 256.344 12.5625C256.734 12.8984 257.078 13.2773 257.375 13.6992L251.375 20.9297ZM253.016 14.332C252.867 14.2773 252.719 14.2422 252.57 14.2266C252.43 14.2109 252.281 14.2031 252.125 14.2031C251.688 14.2031 251.273 14.2852 250.883 14.4492C250.5 14.6055 250.164 14.832 249.875 15.1289C249.594 15.4258 249.371 15.7852 249.207 16.207C249.043 16.6211 248.961 17.0898 248.961 17.6133C248.961 17.7305 248.965 17.8633 248.973 18.0117C248.988 18.1602 249.008 18.3125 249.031 18.4688C249.062 18.6172 249.098 18.7617 249.137 18.9023C249.176 19.043 249.227 19.168 249.289 19.2773L253.016 14.332ZM262.191 24H258.992V11.4492H259.766L260.82 12.9375C261.336 12.4688 261.922 12.1094 262.578 11.8594C263.234 11.6016 263.914 11.4727 264.617 11.4727H267.441V14.6602H264.617C264.281 14.6602 263.965 14.7227 263.668 14.8477C263.371 14.9727 263.113 15.1445 262.895 15.3633C262.676 15.582 262.504 15.8398 262.379 16.1367C262.254 16.4336 262.191 16.75 262.191 17.0859V24ZM272.492 24L267.711 11.4492H271.355L274.098 19.2773L276.828 11.4492H280.484L275.703 24H272.492ZM286.32 20.9297C286.445 20.9688 286.57 20.9961 286.695 21.0117C286.82 21.0195 286.945 21.0234 287.07 21.0234C287.383 21.0234 287.684 20.9805 287.973 20.8945C288.262 20.8086 288.531 20.6875 288.781 20.5312C289.039 20.3672 289.266 20.1719 289.461 19.9453C289.664 19.7109 289.828 19.4531 289.953 19.1719L292.297 21.5273C292 21.9492 291.656 22.3281 291.266 22.6641C290.883 23 290.465 23.2852 290.012 23.5195C289.566 23.7539 289.094 23.9297 288.594 24.0469C288.102 24.1719 287.594 24.2344 287.07 24.2344C286.188 24.2344 285.355 24.0703 284.574 23.7422C283.801 23.4141 283.121 22.957 282.535 22.3711C281.957 21.7852 281.5 21.0898 281.164 20.2852C280.828 19.4727 280.66 18.582 280.66 17.6133C280.66 16.6211 280.828 15.7148 281.164 14.8945C281.5 14.0742 281.957 13.375 282.535 12.7969C283.121 12.2188 283.801 11.7695 284.574 11.4492C285.355 11.1289 286.188 10.9688 287.07 10.9688C287.594 10.9688 288.105 11.0312 288.605 11.1562C289.105 11.2812 289.578 11.4609 290.023 11.6953C290.477 11.9297 290.898 12.2188 291.289 12.5625C291.68 12.8984 292.023 13.2773 292.32 13.6992L286.32 20.9297ZM287.961 14.332C287.812 14.2773 287.664 14.2422 287.516 14.2266C287.375 14.2109 287.227 14.2031 287.07 14.2031C286.633 14.2031 286.219 14.2852 285.828 14.4492C285.445 14.6055 285.109 14.832 284.82 15.1289C284.539 15.4258 284.316 15.7852 284.152 16.207C283.988 16.6211 283.906 17.0898 283.906 17.6133C283.906 17.7305 283.91 17.8633 283.918 18.0117C283.934 18.1602 283.953 18.3125 283.977 18.4688C284.008 18.6172 284.043 18.7617 284.082 18.9023C284.121 19.043 284.172 19.168 284.234 19.2773L287.961 14.332ZM300.828 24H293.516V20.8125H300.828C301.047 20.8125 301.234 20.7344 301.391 20.5781C301.547 20.4219 301.625 20.2344 301.625 20.0156C301.625 19.7891 301.547 19.6406 301.391 19.5703C301.234 19.5 301.047 19.4648 300.828 19.4648H297.5C296.945 19.4648 296.426 19.3594 295.941 19.1484C295.457 18.9375 295.035 18.6523 294.676 18.293C294.316 17.9258 294.031 17.5 293.82 17.0156C293.617 16.5312 293.516 16.0117 293.516 15.457C293.516 14.9023 293.617 14.3828 293.82 13.8984C294.031 13.4141 294.316 12.9922 294.676 12.6328C295.035 12.2734 295.457 11.9922 295.941 11.7891C296.426 11.5781 296.945 11.4727 297.5 11.4727H303.98V14.6602H297.5C297.281 14.6602 297.094 14.7383 296.938 14.8945C296.781 15.0508 296.703 15.2383 296.703 15.457C296.703 15.6836 296.781 15.8789 296.938 16.043C297.094 16.1992 297.281 16.2773 297.5 16.2773H300.828C301.375 16.2773 301.891 16.3711 302.375 16.5586C302.859 16.7383 303.281 16.9922 303.641 17.3203C304 17.6484 304.285 18.043 304.496 18.5039C304.707 18.9648 304.812 19.4688 304.812 20.0156C304.812 20.5703 304.707 21.0898 304.496 21.5742C304.285 22.0508 304 22.4727 303.641 22.8398C303.281 23.1992 302.859 23.4844 302.375 23.6953C301.891 23.8984 301.375 24 300.828 24ZM325.402 24H324.629L323.387 22.2773C323.082 22.5508 322.758 22.8086 322.414 23.0508C322.078 23.2852 321.723 23.4922 321.348 23.6719C320.973 23.8438 320.586 23.9805 320.188 24.082C319.797 24.1836 319.398 24.2344 318.992 24.2344C318.109 24.2344 317.277 24.0859 316.496 23.7891C315.723 23.4922 315.043 23.0625 314.457 22.5C313.879 21.9297 313.422 21.2344 313.086 20.4141C312.75 19.5938 312.582 18.6602 312.582 17.6133C312.582 16.6367 312.75 15.7422 313.086 14.9297C313.422 14.1094 313.879 13.4062 314.457 12.8203C315.043 12.2344 315.723 11.7812 316.496 11.4609C317.277 11.1328 318.109 10.9688 318.992 10.9688C319.398 10.9688 319.801 11.0195 320.199 11.1211C320.598 11.2227 320.984 11.3633 321.359 11.543C321.734 11.7227 322.09 11.9336 322.426 12.1758C322.77 12.418 323.09 12.6797 323.387 12.9609L324.629 11.4727H325.402V24ZM322.18 17.6133C322.18 17.1758 322.094 16.7539 321.922 16.3477C321.758 15.9336 321.531 15.5703 321.242 15.2578C320.953 14.9375 320.613 14.6836 320.223 14.4961C319.84 14.3008 319.43 14.2031 318.992 14.2031C318.555 14.2031 318.141 14.2773 317.75 14.4258C317.367 14.5742 317.031 14.793 316.742 15.082C316.461 15.3711 316.238 15.7305 316.074 16.1602C315.91 16.582 315.828 17.0664 315.828 17.6133C315.828 18.1602 315.91 18.6484 316.074 19.0781C316.238 19.5 316.461 19.8555 316.742 20.1445C317.031 20.4336 317.367 20.6523 317.75 20.8008C318.141 20.9492 318.555 21.0234 318.992 21.0234C319.43 21.0234 319.84 20.9297 320.223 20.7422C320.613 20.5469 320.953 20.293 321.242 19.9805C321.531 19.6602 321.758 19.2969 321.922 18.8906C322.094 18.4766 322.18 18.0508 322.18 17.6133Z" fill="#D95323"/>
<defs>
<filter id="filter0_d_143_26" x="0" y="6" width="65" height="65" filterUnits="userSpaceOnUse" color-interpolation-filters="sRGB">
<feFlood flood-opacity="0" result="BackgroundImageFix"/>
<feColorMatrix in="SourceAlpha" type="matrix" values="0 0 0 0 0 0 0 0 0 0 0 0 0 0 0 0 0 0 127 0" result="hardAlpha"/>
<feOffset dy="4"/>
<feGaussianBlur stdDeviation="2"/>
<feComposite in2="hardAlpha" operator="out"/>
<feColorMatrix type="matrix" values="0 0 0 0 0 0 0 0 0 0 0 0 0 0 0 0 0 0 0.25 0"/>
<feBlend mode="normal" in2="BackgroundImageFix" result="effect1_dropShadow_143_26"/>
<feBlend mode="normal" in="SourceGraphic" in2="effect1_dropShadow_143_26" result="shape"/>
</filter>
</defs>
</svg>
