<svg width="65" height="69" viewBox="0 0 65 69" fill="none" xmlns="http://www.w3.org/2000/svg">
<path d="M16.5 0C16.5 2 16.5 4 16.5 6C20.1138 5.53629 23.7275 5.12634 27.3413 4.77014C34.7275 4.0421 42.1138 3.53864 49.5 3.25975C54.0163 3.03517 58.6151 5.48401 60.9991 9.42385C62.3065 11.5358 63.0032 14.0162 62.9942 16.5C62.9773 27.5 62.9226 38.5 62.8303 49.5C62.9408 56.6082 56.4762 62.8755 49.5 62.6057C38.5 62.465 27.5 62.2867 16.5 62.0707C9.79075 62.0864 4.04829 55.937 4.39236 49.5C4.65675 38.5 4.95879 27.5 5.29848 16.5C5.39328 13.6183 6.65141 10.8728 8.67901 8.95046C10.7896 6.92326 13.6763 5.85791 16.5 6C16.5 4 16.5 2 16.5 0C12.084 0.103081 7.78948 2.09745 4.89545 5.29722C2.09906 8.33339 0.573541 12.46 0.701525 16.5C1.04121 27.5 1.34325 38.5 1.60764 49.5C1.60202 57.4449 8.82739 64.2633 16.5 63.9293C27.5 63.7133 38.5 63.535 49.5 63.3943C56.9057 63.4742 63.4089 56.7737 63.1697 49.5C63.0774 38.5 63.0227 27.5 63.0058 16.5C63.0069 14.0141 62.3064 11.5358 60.9991 9.42385C58.6098 5.49976 54.1922 2.87899 49.5 2.74025C42.1138 2.46136 34.7275 1.9579 27.3413 1.22986C23.7275 0.873665 20.1138 0.463711 16.5 0ZM16.5 6V0V6Z" fill="#D95323"/>
<g filter="url(#filter0_d_144_28)">
<path d="M45.3612 8.03662C35.2266 6.55808 29.5445 6.75431 19.41 8.03662C13.5467 8.03662 8.79357 12.8884 8.79357 18.8733C6.44035 29.2185 6.36424 35.0179 8.79357 45.3631C8.79357 51.3481 13.5467 56.1998 19.41 56.1998C30.2356 58.5882 35.9234 58.6119 45.3612 56.1998C51.2245 56.1998 55.9776 51.3481 55.9776 45.3631C58.7757 35.0182 58.5706 29.2183 55.9776 18.8733C55.9776 12.8884 51.2245 8.03662 45.3612 8.03662Z" fill="#D95323"/>
<path d="M45.3612 8.03662C35.2266 6.55808 29.5445 6.75431 19.41 8.03662C13.5467 8.03662 8.79357 12.8884 8.79357 18.8733C6.44035 29.2185 6.36424 35.0179 8.79357 45.3631C8.79357 51.3481 13.5467 56.1998 19.41 56.1998C30.2356 58.5882 35.9234 58.6119 45.3612 56.1998C51.2245 56.1998 55.9776 51.3481 55.9776 45.3631C58.7757 35.0182 58.5706 29.2183 55.9776 18.8733C55.9776 12.8884 51.2245 8.03662 45.3612 8.03662Z" stroke="#D95323" stroke-width="6"/>
</g>
<path d="M44 28C47.3137 28 50 25.3137 50 22C50 18.6863 47.3137 16 44 16C40.6863 16 38 18.6863 38 22C38 25.3137 40.6863 28 44 28Z" fill="#E6EAD7"/>
<path d="M20 52C23.3137 52 26 49.3137 26 46C26 42.6863 23.3137 40 20 40C16.6863 40 14 42.6863 14 46C14 49.3137 16.6863 52 20 52Z" fill="#E6EAD7"/>
<defs>
<filter id="filter0_d_144_28" x="0" y="4" width="65" height="65" filterUnits="userSpaceOnUse" color-interpolation-filters="sRGB">
<feFlood flood-opacity="0" result="BackgroundImageFix"/>
<feColorMatrix in="SourceAlpha" type="matrix" values="0 0 0 0 0 0 0 0 0 0 0 0 0 0 0 0 0 0 127 0" result="hardAlpha"/>
<feOffset dy="4"/>
<feGaussianBlur stdDeviation="2"/>
<feComposite in2="hardAlpha" operator="out"/>
<feColorMatrix type="matrix" values="0 0 0 0 0 0 0 0 0 0 0 0 0 0 0 0 0 0 0.25 0"/>
<feBlend mode="normal" in2="BackgroundImageFix" result="effect1_dropShadow_144_28"/>
<feBlend mode="normal" in="SourceGraphic" in2="effect1_dropShadow_144_28" result="shape"/>
</filter>
</defs>
</svg>
